<?xml version="1.0" encoding="utf-8"?>
<!-- Generator: Adobe Illustrator 19.1.0, SVG Export Plug-In . SVG Version: 6.00 Build 0)  -->
<svg version="1.1" xmlns="http://www.w3.org/2000/svg" xmlns:xlink="http://www.w3.org/1999/xlink" x="0px" y="0px"
	 viewBox="0 0 259.9 228.2" style="enable-background:new 0 0 259.9 228.2;" xml:space="preserve">
<style type="text/css">
	.st0{display:none;}
	.st1{fill:#FFFFFF;stroke:#000000;stroke-width:3;stroke-miterlimit:10;}
	.st2{fill:#FFFFFF;}
	.st3{fill:none;stroke:#FFFFFF;stroke-width:3;stroke-miterlimit:10;}
	.st4{fill:none;stroke:#000000;stroke-width:3;stroke-miterlimit:10;}
	.st5{fill:none;stroke:#000000;stroke-width:2;stroke-miterlimit:10;}
	.st6{fill:none;stroke:#FFFFFF;stroke-width:2;stroke-miterlimit:10;}
	.st7{fill:none;stroke:#000000;stroke-miterlimit:10;}
	.st8{fill:none;stroke:#000000;stroke-width:5;stroke-miterlimit:10;}
	.st9{fill:none;stroke:#000000;stroke-width:4;stroke-miterlimit:10;}
</style>
<g id="bg">
</g>
<g id="birdmin_xA0_Image_1_" class="st0">
</g>
<g id="body">
	<path class="st2" d="M45.4,88.7c0,0,0.1,0.1,0.3,0.2c0.2,0.2,0.5,0.4,0.9,0.7c0.7,0.6,1.8,1.4,3.1,2.5c1.3,1.1,2.8,2.5,4.5,4.2
		c1.7,1.7,3.5,3.7,5.4,5.9c1.9,2.2,3.8,4.7,5.7,7.5c1.9,2.8,3.8,5.7,5.5,8.9c0.9,1.6,1.7,3.3,2.5,4.9c0.8,1.7,1.6,3.4,2.3,5.2
		c0.7,1.8,1.4,3.6,2,5.4c0.3,0.9,0.6,1.8,0.9,2.8l0.8,2.8c0.6,1.9,0.9,3.8,1.4,5.6c0.4,1.9,0.7,3.8,1,5.7c0.3,1.9,0.5,3.8,0.7,5.6
		c0.1,1.9,0.3,3.7,0.4,5.5c0.1,1.8,0.1,3.6,0.1,5.3c0,1.7-0.1,3.4-0.2,5.1c0,1.7-0.2,3.3-0.4,4.8c-0.2,1.5-0.2,3.1-0.5,4.5
		c-0.4,2.9-0.8,5.5-1.3,7.8c-0.5,2.3-0.8,4.3-1.3,5.9c-0.8,3.3-1.3,5.1-1.3,5.1l-3.9-1c0,0,0.4-1.8,1.2-5c0.4-1.6,0.7-3.5,1.1-5.8
		c0.5-2.2,0.7-4.8,1.1-7.5c0.2-1.4,0.3-2.8,0.4-4.3c0.1-1.5,0.3-3,0.3-4.6c0-1.6,0.1-3.2,0.1-4.9c-0.1-1.7-0.1-3.4-0.2-5.1
		c-0.1-1.7-0.3-3.5-0.4-5.3c-0.3-1.8-0.5-3.6-0.8-5.3c-0.4-1.8-0.6-3.6-1.1-5.4c-0.5-1.8-0.8-3.6-1.4-5.3l-0.8-2.6
		c-0.3-0.9-0.6-1.7-0.9-2.6c-0.6-1.7-1.3-3.4-2-5.1c-0.7-1.7-1.5-3.3-2.2-4.9c-0.8-1.6-1.6-3.2-2.5-4.6c-1.7-3-3.5-5.8-5.3-8.4
		c-1.9-2.6-3.7-4.9-5.5-7c-1.8-2.1-3.6-3.9-5.2-5.4c-1.6-1.6-3.1-2.8-4.3-3.8c-1.2-1-2.2-1.8-2.9-2.3c-0.3-0.2-0.6-0.4-0.7-0.5
		c-0.2-0.1-0.3-0.2-0.3-0.2L45.4,88.7z"/>
	<path class="st2" d="M96.8,39.4c1.2-0.2,2.4-0.4,3.6-0.6C99.2,39,98,39.1,96.8,39.4z"/>
	<path class="st2" d="M131.4,43.8c8.6,0.8,17.1,2.8,25.3,6.2c10.8,4.6,21,10.9,30.2,18.6c0.5-0.9,1.5-1.4,2.5-1.6
		c-2.5-2.2-5.1-4.2-7.7-6.2c-3.7-2.7-7.6-5.2-11.5-7.5c-3.9-2.3-7.9-4.5-12.1-6.4c-8.3-3.8-17.2-6.2-26.1-7.4
		c-2.7-0.4-5.3-0.6-8-0.9c-0.4,0.4-0.7,0.7-1.2,1c-0.2,1.2-1,2.2-2.5,2.6c-1.9,0.4-3.7,0.9-5.6,1.3c1.3-0.1,2.6-0.1,3.9-0.1
		C122.8,43.2,127.2,43.4,131.4,43.8z"/>
	<path class="st2" d="M214.3,103.8c1.5,3.2,2.8,6.5,4,9.8c0.8-0.7,1.9-1,2.9-0.9c-1.3-3.4-2.7-6.8-4.2-10.1c-1-2.1-2-4.1-3.1-6.2
		c-0.6-1-1.2-2-1.8-3c-0.6-1-1.2-2-1.8-2.9c-2.5-3.9-5.4-7.5-8.4-11c-1.8-2.1-3.7-4.2-5.7-6.2c-0.5,0.7-1.1,1.2-1.9,1.3
		c-0.2,0-0.4,0.1-0.5,0.1c2.1,2.1,4.2,4.2,6.1,6.5C205.7,88.1,210.7,95.6,214.3,103.8z"/>
	<path class="st2" d="M216.6,175.4l-0.1,0.1c-0.6,0.9-1.2,1.8-1.8,2.7c-0.6,0.9-1.3,1.6-1.9,2.4l-1,1.2c-0.3,0.4-0.6,0.8-1,1.1
		l-2.2,2.2c-0.4,0.4-0.7,0.7-1.1,1.1l-1.2,1c-0.8,0.7-1.6,1.3-2.3,1.9c-0.8,0.7-1.6,1.2-2.4,1.8c-0.8,0.6-1.6,1.2-2.5,1.7
		c-0.9,0.5-1.7,1-2.6,1.5c-6.9,4.1-14.2,7-21.6,9.1c-7.4,2.1-14.8,3.5-22,4.3c-7.2,0.9-14.2,1.1-20.9,0.9c-1.7,0-3.3-0.1-5-0.2
		c-1.6-0.1-3.3-0.2-4.9-0.3c-3.2-0.3-6.3-0.6-9.4-1c-3-0.4-6-1-8.8-1.5c-1.4-0.3-2.8-0.6-4.2-0.9c-0.7-0.2-1.4-0.3-2-0.5
		c-0.7-0.2-1.3-0.4-2-0.5c-10.5-2.7-19.4-6.3-26.1-9.9c-0.8-0.5-1.7-0.9-2.5-1.4c-0.8-0.4-1.6-0.9-2.3-1.3c-1.4-0.9-2.8-1.8-4-2.7
		c-1.2-0.9-2.3-1.7-3.3-2.5c-0.9-0.8-1.8-1.6-2.5-2.3c-0.4-0.3-0.7-0.7-1.1-1c-0.3-0.3-0.6-0.6-0.8-0.9c-0.5-0.6-1-1-1.3-1.4
		c-0.7-0.7-1-1.1-1.1-1.2c-0.1-0.1-0.4-0.5-1-1.3c-0.3-0.4-0.7-0.9-1.1-1.5c-0.4-0.6-1-1.4-1.5-2.2c-2.2-3.4-5.3-8.7-8.1-15.9
		c-1.4-3.6-2.7-7.7-3.7-12.2c-1-4.4-1.9-9.6-2.4-14.9c-0.5-5.3-0.5-10.8,0.8-16.1c0.7-2.7,1.7-5.3,3.1-7.8c1.4-2.4,3.2-4.7,5.4-7.2
		c1.1-1.3,2.3-2.5,3.6-4.1c0.6-0.8,1.3-1.7,2-2.9c0.1-0.2,0.2-0.4,0.3-0.6l0.4-0.9c0.1-0.3,0.2-0.5,0.3-0.8l0.3-0.7
		c1.2-3.6,2.2-6.9,3.4-10.3c1.2-3.3,2.6-6.6,4.2-9.6l0.6-1.1c0-0.1,0-0.1,0-0.1l0,0l0.2-0.3L58,68l0.4-0.6c0.1-0.2,0.2-0.3,0.4-0.4
		l0.7-0.8c0.2-0.3,0.6-0.6,0.9-0.9l0.9-0.9c0.6-0.6,1.3-1.2,2-1.8c2.8-2.4,5.8-4.6,9.1-6.6c3.3-2,6.7-3.8,10.3-5.4
		c2.9-1.3,5.9-2.4,8.9-3.3c-3-0.4-3.4-4.7-1.1-6.5c-3.6,0.9-7.1,2-10.5,3.3c-4,1.5-7.8,3.3-11.5,5.3c-3.7,2.1-7.2,4.3-10.5,7
		c-0.8,0.7-1.6,1.3-2.4,2.1l-1.2,1.1c-0.4,0.4-0.8,0.7-1.2,1.2l-1.2,1.3c-0.2,0.2-0.4,0.5-0.6,0.7l-0.4,0.6l-0.4,0.6L50.5,64
		l-0.1,0.1c0,0-0.3,0.5-0.2,0.4l-0.8,1.3c-2.1,3.6-3.7,7.3-5.1,10.8c-1.4,3.6-2.5,7.2-3.6,10.3l-0.2,0.6c-0.1,0.2-0.1,0.4-0.2,0.5
		l-0.1,0.4c0,0.1-0.2,0.4-0.3,0.6c-0.1,0.3-0.5,0.9-1,1.4c-0.9,1.1-2.1,2.4-3.3,3.7c-1.2,1.3-2.4,2.7-3.5,4.2
		c-0.6,0.7-1.1,1.5-1.6,2.3l-0.8,1.3l-0.7,1.2c-1.7,3.2-3,6.7-3.8,10.1c-1.5,6.8-1.2,13.4-0.3,19.1c0.4,2.9,1,5.6,1.5,8.2
		c0.3,1.2,0.6,2.5,0.9,3.8c0.3,1.3,0.6,2.5,1,3.7c1.4,4.8,3,9.1,4.6,12.9c1.7,3.8,3.3,7,4.9,9.8c1.6,2.8,3,5.1,4.3,6.9
		c0.6,0.9,1.2,1.7,1.7,2.4c0.5,0.7,1,1.3,1.3,1.7c0.7,0.9,1.1,1.3,1.1,1.3l0,0c0,0,0.4,0.4,1.2,1.3c0.4,0.4,0.9,1,1.5,1.6
		c0.3,0.3,0.6,0.7,1,1c0.4,0.3,0.8,0.7,1.2,1.1c3.2,3.1,8.4,7.2,15.6,11.2c1.8,1,3.8,1.9,5.8,2.9c1,0.5,2.1,0.9,3.2,1.4
		c1.1,0.4,2.2,1,3.4,1.4c2.3,0.8,4.7,1.8,7.3,2.5c1.3,0.4,2.6,0.8,3.9,1.2c1.3,0.3,2.7,0.7,4.1,1c0.7,0.2,1.4,0.3,2.1,0.5
		c0.7,0.1,1.4,0.3,2.1,0.4c1.4,0.3,2.9,0.6,4.4,0.9c3,0.5,6,1.1,9.2,1.4c3.1,0.4,6.4,0.7,9.7,1c1.7,0.1,3.3,0.2,5,0.2
		c1.7,0.1,3.4,0.1,5.2,0.1c6.9,0.1,14.2-0.3,21.6-1.2c7.4-1,15.1-2.5,22.7-4.8c7.6-2.3,15.3-5.5,22.5-9.9c0.9-0.6,1.8-1.1,2.7-1.7
		c0.9-0.6,1.7-1.2,2.6-1.9c0.9-0.6,1.8-1.2,2.6-1.9c0.8-0.7,1.6-1.4,2.5-2.1l1.2-1.1c0.4-0.4,0.8-0.8,1.1-1.2
		c0.8-0.8,1.5-1.6,2.3-2.4c0.4-0.4,0.7-0.8,1.1-1.3l1.1-1.3c0.7-0.9,1.5-1.8,2.1-2.7c0.5-0.7,1-1.5,1.5-2.2
		C218.2,177.9,217,176.9,216.6,175.4z"/>
</g>
<g id="eyes">
	<path class="st2" d="M120.4,73.3c0-0.7-0.2-1.4-0.5-2c-0.2-1.1-0.8-2.2-1.8-2.8c-1.2-0.7-2.4-0.7-3.5-0.3c-1.5-0.2-2.7,0.6-3.6,1.7
		c-2,1.4-2.8,4.4-1.4,6.5c0,0,0,0.1,0.1,0.1c0.1,0.2,0.2,0.5,0.3,0.7c0.1,0.3,0.3,0.6,0.5,0.9c0.7,1.1,1.7,1.9,3.1,1.9
		c0.3,0,0.7,0.1,1,0c0.8,0,1.5-0.3,2.2-0.7c1.6-0.5,3-1.9,3.4-3.6c0.2-0.6,0.2-1.2,0.1-1.8C120.4,73.8,120.4,73.6,120.4,73.3z
		 M113.7,78.5c-3.1,0-3.1-4.8,0-4.8C116.7,73.7,116.7,78.5,113.7,78.5z"/>
	<path class="st2" d="M185.7,83.5c0.2-2.2-0.6-4.6-2.5-5.7c-0.2-0.1-0.3-0.2-0.5-0.2c-0.1-0.1-0.2-0.2-0.3-0.2
		c-0.1,0-0.1-0.1-0.2-0.1c-0.5-0.4-1.1-0.5-1.6-0.5c-0.7-0.3-1.5-0.3-2.3,0c-2.4,1-2.5,4.2-1.9,6.3c0.4,1.4,1.3,2.5,2.4,3.2
		c0.6,0.9,1.4,1.6,2.4,1.8c1.5,0.4,3.1-0.4,3.9-1.7C185.7,85.5,185.8,84.5,185.7,83.5z M180.3,86.2c-3.1,0-3.1-4.8,0-4.8
		C183.4,81.4,183.4,86.2,180.3,86.2z"/>
	<path class="st3" d="M216.8,178.9c0,0-3.7-14.9-3.7-40.2s5.8-27.7,5.8-27.7s11.8,11.7,12.5,32S216.8,178.9,216.8,178.9z"/>
</g>
<g id="foot">
	<path class="st3" d="M89.3,141.1c-0.3,1.1,6.9,9.4,10.4,12.2c1.5,1.2,3,2.2,4.5,3.5c3.5,3.1,6.1,7.1,8.3,11.2
		c0.7,1.2,1.4,2.5,2.5,3.3s2.9,1,3.9,0c0.8-0.8,0.9-2.2,0.7-3.3c-0.5-4.5-3-8.7-3.2-13.2c-0.1-1.9,0.2-3.8,0.9-5.5
		c1.2-3,3.3-5.4,5.2-8c1.9-2.6,3.6-5.5,3.7-8.7c0-0.7-0.1-1.3-0.5-1.9c-0.5-0.7-1.6-0.9-2.5-0.9c-2.3,0.1-4.5,1.4-6.1,3.1
		c-1.6,1.7-2.8,3.8-3.9,5.8c-1.3,2.5-2.9,7-4,7.4c-1.2,0.4,0-11.9-0.8-17.8c-0.1-0.6-0.2-1.3-0.6-1.8c-0.9-1.1-2.8-0.6-3.6,0.6
		s-0.8,2.6-0.8,4c0.2,4.2,0.7,8.4,1.4,12.5c0.2,1.1,0.4,2.2,0,3.2c-0.3,1-1.4,1.8-2.4,1.5c-0.5-0.2-0.9-0.6-1.3-1
		c-1.4-1.5-5.7-7.2-6.1-7.7C92.4,136.4,89.6,140.1,89.3,141.1z"/>
	<path class="st6" d="M112.7,168.4c0,0-6.7,3.1-8.4-1c-1.7-4.1,3-7.3,3-7.3"/>
</g>
<g id="hat">
	<path class="st2" d="M123.8,38.1c0,0,0.1-0.1,0.2-0.2c0.2-0.2,0.4-0.4,0.7-0.7c0.6-0.6,1.5-1.4,2.6-2.3c1.1-0.9,2.4-2,3.8-3.1
		c1.4-1.1,3-2.2,4.6-3.2c0.8-0.5,1.6-1,2.5-1.5c0.8-0.5,1.6-0.9,2.5-1.3c0.8-0.4,1.6-0.8,2.4-1.1c0.8-0.3,1.5-0.7,2.2-0.9
		c0.7-0.2,1.4-0.5,1.9-0.7c0.6-0.2,1.1-0.3,1.5-0.4c0.9-0.2,1.3-0.4,1.3-0.4l0.9,4.9c0,0-0.4,0.1-1.2,0.2c-0.4,0.1-0.8,0.1-1.3,0.3
		c-0.5,0.1-1.1,0.3-1.7,0.5c-0.6,0.2-1.3,0.4-2,0.7c-0.7,0.2-1.5,0.6-2.2,0.9c-0.8,0.3-1.6,0.7-2.4,1.1c-0.8,0.4-1.6,0.8-2.4,1.2
		c-1.6,0.9-3.1,1.8-4.6,2.8c-1.4,0.9-2.7,1.9-3.8,2.7c-1.1,0.8-2,1.5-2.6,2.1c-0.3,0.3-0.5,0.5-0.7,0.6c-0.2,0.1-0.2,0.2-0.2,0.2
		L123.8,38.1z"/>
	<polygon class="st2" points="112.5,34 83.6,46.3 82.4,43.6 110.9,30.3 	"/>
	<g>
		<path class="st2" d="M67.5,53.7c-10.4-6.4-10.6-22-10.6-22.7l2,0c0,0.2,0.2,15.2,9.6,21L67.5,53.7z"/>
	</g>
	<path class="st2" d="M170.3,37.1c-5.6,4.5-13.8,9.3-13.8,9.3s-8.9-4.5-18.5-5.8c-5.2-0.8-9.9-1.2-13.1-1.5c0,0,12.2-12,25.7-14.5
		C154.2,24.4,164.6,25.2,170.3,37.1z"/>
	<g>
		<path class="st2" d="M149.6,27.1L112.1,34l-0.2,0l-0.1,0c-0.9,0-1.6-0.2-2.3-0.4c-0.7-0.2-1.3-0.4-1.9-0.7
			c-1.2-0.5-2.3-1.1-3.4-1.7c-2.2-1.3-4.2-2.6-6.2-4.1c-2-1.4-3.9-2.9-5.9-4.4c-1.9-1.5-3.8-3.1-5.7-4.7l1.3,0.3l0,0
			c-1.6,0.5-3.4,1.1-5,1.7c-1.7,0.6-3.3,1.3-5,2.1c-1.6,0.7-3.3,1.5-4.9,2.3c-1.6,0.8-3.2,1.6-4.8,2.5c-1.6,0.9-3.1,1.8-4.7,2.7
			l-1.1,0.7l-0.5,0.3l-0.6,0.4l-2.3,1.5c-1.4,1.1-2.8,2.1-4.1,3.2l-1,0.9c-0.3,0.3-0.6,0.6-0.9,0.9c-0.6,0.6-1.3,1.2-1.8,1.9
			c-1.2,1.3-2.2,2.6-3.1,4.1c-0.5,0.7-0.9,1.4-1.3,2.2c-0.2,0.4-0.4,0.7-0.6,1.1l-0.5,1.2c-0.4,0.8-0.6,1.6-0.8,2.4
			c-0.2,0.8-0.4,1.6-0.6,2.5c-0.1,0.8-0.3,1.7-0.3,2.5c-0.1,0.8-0.1,1.7-0.1,2.5c0.1,1.7,0.3,3.4,0.6,5c0.4,1.7,0.9,3.3,1.5,4.9
			c0.6,1.6,1.4,3.2,2.2,4.7c0.8,1.5,1.8,3,2.8,4.4l0,0l-2.5,0.4c0.4-1,0.8-1.9,1.3-2.9c0.4-0.9,0.9-1.9,1.4-2.8
			c0.5-0.9,1-1.8,1.5-2.7c0.5-0.9,1-1.8,1.6-2.7c0.6-0.9,1.1-1.7,1.7-2.6c0.6-0.8,1.2-1.7,1.8-2.5c0.6-0.8,1.2-1.7,1.9-2.4
			c0.7-0.8,1.3-1.6,2.1-2.3l1.1-1.1c0.4-0.4,0.8-0.7,1.2-1.1l1.2-1l1.3-1c0.8-0.7,1.8-1.2,2.7-1.7c0.9-0.6,1.8-1,2.7-1.5l10.8-5.5
			l0.6-0.3l0.7,0.3c0.8,0.3,1.6,0.6,2.5,0.9c0.8,0.3,1.7,0.5,2.6,0.8c0.9,0.2,1.7,0.4,2.6,0.6c0.9,0.2,1.7,0.3,2.6,0.4
			c0.9,0.1,1.8,0.2,2.6,0.3c0.9,0.1,1.8,0.1,2.6,0.1c0.9,0,1.8,0,2.6-0.2c0.9-0.1,1.7-0.2,2.6-0.4c0.8-0.2,1.8-0.4,2.6-0.6
			c0.9-0.2,1.8-0.4,2.6-0.7c1.7-0.5,3.4-1,5.1-1.7c1.7-0.6,3.2-1.4,4.8-2.3c1.5-0.9,3-1.9,4.4-2.9l0.5-0.4l0.6,0.1l8.2,0.9l4.1,0.5
			l1,0.1l1,0.2c0.7,0.1,1.4,0.2,2.1,0.4c2.8,0.6,5.4,1.3,8.1,2.3c1.3,0.5,2.6,0.9,3.9,1.5c0.6,0.3,1.3,0.5,1.9,0.8
			c0.6,0.3,1.3,0.6,1.9,0.9l-1.4,0.1c2.3-1.4,4.7-2.9,6.9-4.4c2.3-1.5,4.5-3.1,6.6-4.8l0,0l-0.4,1.8l-0.9-1.3
			c-0.3-0.4-0.5-0.9-0.9-1.3c-0.3-0.4-0.6-0.8-1-1.2c-0.3-0.4-0.7-0.8-1-1.1c-0.4-0.3-0.7-0.7-1.1-1c-0.4-0.3-0.8-0.6-1.1-0.9
			c-0.4-0.3-0.8-0.6-1.2-0.8c-0.4-0.3-0.8-0.5-1.2-0.7c-0.4-0.2-0.8-0.5-1.3-0.6c-0.4-0.2-0.9-0.3-1.3-0.5l-1.4-0.4l-1.4-0.4
			c-0.5-0.1-0.9-0.2-1.4-0.3c-0.5-0.1-1-0.1-1.4-0.2c-0.5,0-1-0.1-1.4-0.1C150.4,27.1,149.9,27.1,149.6,27.1z M148.8,22.3
			c0.8-0.1,1.3-0.2,2-0.2c0.6,0,1.2,0,1.8,0c0.6,0,1.2,0.1,1.8,0.1c0.6,0.1,1.2,0.2,1.8,0.3c0.6,0.2,1.2,0.3,1.8,0.5l1.7,0.6
			c0.6,0.3,1.1,0.5,1.7,0.8c0.5,0.3,1.1,0.6,1.6,0.9c0.5,0.3,1,0.7,1.5,1.1c0.5,0.4,1,0.7,1.4,1.2c0.4,0.4,0.9,0.9,1.3,1.3
			c0.4,0.5,0.7,0.9,1.1,1.4c0.4,0.5,0.7,0.9,1,1.5c0.3,0.5,0.6,1,0.9,1.5c0.3,0.5,0.5,1.1,0.7,1.6l0.7,1.6l0.5,1.1l-0.9,0.7l0,0
			c-2.2,1.8-4.5,3.4-6.8,4.9c-2.3,1.6-4.7,3.1-7.1,4.5l-0.7,0.4l-0.7-0.4c-0.6-0.3-1.2-0.6-1.8-0.8c-0.6-0.3-1.2-0.5-1.8-0.8
			c-1.2-0.5-2.5-1-3.8-1.4c-1.3-0.4-2.5-0.8-3.8-1.2l-1.9-0.5c-0.6-0.1-1.3-0.3-1.9-0.4c-0.6-0.1-1.3-0.3-2-0.4l-1-0.2l-1-0.1
			l-4-0.5l-8.1-0.9l1-0.3c-1.5,1.1-3.1,2.2-4.8,3.2c-1.7,0.9-3.4,1.8-5.2,2.5c-1.8,0.7-3.6,1.3-5.4,1.8c-0.9,0.2-1.8,0.5-2.7,0.7
			c-0.9,0.2-1.8,0.4-2.7,0.6c-1,0.2-1.9,0.4-2.9,0.4c-1,0.1-1.9,0.1-2.9,0.2c-1,0-1.9,0-2.9-0.1c-1-0.1-1.9-0.2-2.8-0.3
			c-0.9-0.1-1.9-0.3-2.8-0.5c-0.9-0.2-1.9-0.4-2.8-0.6c-0.9-0.2-1.8-0.5-2.7-0.8c-0.9-0.3-1.8-0.6-2.7-1l1.3,0l-10.8,5.5
			c-0.9,0.5-1.9,0.9-2.6,1.4c-0.8,0.5-1.6,0.9-2.4,1.5l-1.2,0.9l-1.1,1c-0.4,0.3-0.7,0.6-1.1,1l-1,1c-0.7,0.7-1.3,1.4-2,2.2
			c-0.7,0.7-1.2,1.5-1.8,2.3c-0.6,0.8-1.1,1.6-1.7,2.4c-0.6,0.8-1.1,1.7-1.6,2.5c-0.5,0.9-1,1.7-1.5,2.6c-0.5,0.9-1,1.7-1.4,2.6
			c-0.5,0.9-0.9,1.8-1.3,2.7c-0.4,0.9-0.8,1.8-1.2,2.7l-0.9,2.2L48.6,79l0,0c-1.4-1.5-2.4-3-3.5-4.6c-1-1.6-1.9-3.3-2.7-5.1
			c-0.8-1.8-1.4-3.6-1.8-5.5c-0.4-1.9-0.7-3.8-0.8-5.8c-0.1-2,0.1-3.9,0.4-5.9c0.2-1,0.4-1.9,0.7-2.9c0.3-0.9,0.6-1.9,1-2.8l0.6-1.3
			c0.2-0.4,0.4-0.9,0.7-1.3c0.4-0.9,1-1.7,1.5-2.5c1.1-1.6,2.2-3.1,3.5-4.5c0.6-0.7,1.3-1.4,2-2c0.3-0.3,0.7-0.7,1-1l1.1-0.9
			c1.4-1.3,3-2.4,4.5-3.5l2.3-1.5l0.6-0.4l0.7-0.4l1.2-0.7c1.6-0.9,3.2-1.8,4.8-2.7c1.6-0.9,3.3-1.7,5-2.5c1.7-0.8,3.4-1.5,5.1-2.2
			c1.7-0.7,3.4-1.4,5.2-2c1.8-0.6,3.5-1.2,5.4-1.7l0,0l0.7-0.2l0.6,0.5c1.8,1.5,3.8,3,5.7,4.4c1.9,1.4,3.9,2.8,5.8,4.2
			c2,1.3,4,2.6,6,3.7c1,0.5,2.1,1.1,3.1,1.5c0.5,0.2,1,0.4,1.5,0.5c0.5,0.1,0.9,0.2,1.3,0.2l-0.4,0L148.8,22.3L148.8,22.3z"/>
	</g>
	<polygon class="st2" points="90.8,20.3 90.8,29 101.8,28 	"/>
</g>
<g id="glasses">
	<path class="st2" d="M201.5,64.3c-0.3-0.8-0.9-1.5-1.9-1.7c-0.6-0.4-1.3-0.4-2-0.2c-5.1-0.5-10.3-1-15.4-1.5
		c-0.3-0.2-0.8-0.4-1.3-0.4c-2.7-0.2-5.3-0.3-8-0.5c-0.2,0-0.3,0-0.4,0c-0.3,0-0.7,0-1.1,0.1c0,0-0.1,0-0.1,0
		c-0.2,0-0.4,0.1-0.5,0.1c-0.2,0-0.4,0.1-0.5,0.2c-0.4,0.1-0.9,0.3-1.3,0.4c0,0,0,0,0,0c-5.6,1.5-11.4,1.8-17.1,0.6
		c-5.7-1.2-10.4-4.6-16.3-5c-12.5-0.8-25-0.8-37.5-0.7l-1.5,0c-0.5-0.1-1-0.1-1.6,0c-0.4,0-0.8,0-1.2,0c-1,0-1.6,0.5-2,1.1
		c-0.4,0.3-0.7,0.6-0.8,1.1c-1.9,0.7-3.7,1.5-5.6,2.3c-7.9,3-15.9,5.7-24,8.2c-0.8,0.2-1.3,0.8-1.5,1.4c-0.2,0.2-0.3,0.5-0.4,0.8
		c-0.4,1-1.1,3.6-1.2,3.9c-0.1,0.4-0.1,0.7-0.1,1c-0.7,3.5,1.3,18.7,1.8,18.9c1.3,2.9,5.6,0.4,4.3-2.5c-0.7-1.5-1.2-3-1.7-4.5
		c-0.4-3.8-0.2-7.6,0.6-11.4c0.2-0.3,0.3-0.5,0.5-0.8c0.8-0.9,1.7-1.6,4.1-2.4c2.4-0.8,22.4-7.1,23.1-7.4c0.1,0.3,0.2,0.5,0.4,0.8
		c0,0,0,0,0,0c0.2,7.8,2.2,15.5,6.1,22.3c4.3,7.3,9.7,10.1,18.1,10.3c6.9,0.1,14.3-1.7,19.2-6.8c3.9-4,5.9-12.5,6.6-14.4
		c0.7-1.9,2.8-3.6,3-3.7c7.1-3.8,21.1-1.5,22.4-0.2s2.2,10.5,3.8,15.6c0.7,2.5,1.9,4.6,3.6,6.2c0.3,0.4,1.4,1.3,1.7,1.2
		c2.1,1.1,4.3,1.6,6.7,1.5c1.7,0,3.3-0.3,4.9-0.9c0.6-0.1,5.9-3.2,7.1-4.2c0,0,0.1-0.1,0.1-0.1c0.1-0.1,0.1-0.1,0.2-0.2
		c0.4-0.3,0.6-0.7,0.7-1.2c0,0,0.1-0.1,0.1-0.1c0.6-1.1,2-4,2.2-4.6c0.6-2.2,2.1-10.3,2.2-12c0.1-0.3,0.8-3.9,0.9-4.4
		c0.3-1.2,0.6-2.5,0.9-3.7c0-0.1,0-0.2,0.1-0.3c0-0.1,0.1-0.3,0.1-0.4l0-0.3C201.9,65.1,201.8,64.6,201.5,64.3z M131,82.6
		c-1.1,2.4-2.4,5.1-4.4,6.8c-3.1,2.7-7.4,2.3-11.2,1.6C102.2,88.5,99,75.8,98.3,64c0-0.2,0-0.3-0.1-0.4c12.3,0.1,24.6,0.6,36.9,1.5
		C134.9,71.2,133.6,77.1,131,82.6z M194.4,72.4c-0.6,2.2-1.5,7.3-1.5,7.6c-0.6,2.9-1.5,5.7-2.7,8.4c0,0,0,0,0,0
		c-0.1,0.2-0.2,0.3-0.3,0.5c-0.5,0.7-1.2,1.4-1.9,2c-2.7,1-6.2,1.2-8.9,0.3c0,0,0-0.1-0.1-0.1c-2.2-2.2-3.5-4.7-4.2-7.4
		c-0.1-0.4-0.1-0.8-0.2-1.3c-0.1-0.7-0.2-1.4-0.3-2.1c0-0.2-0.2-2.1-0.4-2.8c-0.1-2.4-0.1-6,0.4-7.1c0.7-2.1,1.5-2.1,3.5-2.1
		l16.7,1.3c-0.1,0.7-0.1,1.4-0.2,2.1C194.4,72.1,194.4,72.2,194.4,72.4z"/>
</g>
<g id="beak">
	<path class="st2" d="M162,100.1c0.4-0.4,0.8-0.9,1.4-1.5c0.8-0.8,1.7-1.9,2.7-3.1c1-1.2,2.1-2.6,3-4.2c0.5-0.8,0.9-1.6,1.2-2.4
		c0.1-0.4,0.2-0.8,0.2-1.1c0-0.1,0-0.1,0-0.2l0-0.1l0,0l0,0c0-0.1,0,0.1,0,0.1l0-0.1c-0.1-0.3-0.1-0.5-0.2-0.8
		c-0.3-0.6-0.8-1.6-1.4-2.4c-0.6-0.8-1.4-1.6-2.2-2.4c-1.7-1.5-3.7-2.7-5.8-3.4c-2.2-0.8-4.6-1.1-6.9-0.9c-0.6,0.1-1.3,0.1-1.9,0.2
		c-0.6,0.1-1.2,0.2-1.8,0.3c-1.2,0.2-2.3,0.6-3.1,1c-0.9,0.5-1.4,1-1.6,1.7c-0.3,0.7-0.2,1.7,0,2.7c0.5,2.2,1.4,4.2,2.5,6
		c1.1,1.8,2.4,3.2,3.8,4.2c0.7,0.5,1.4,1,2.2,1.3c0.3,0.2,0.8,0.3,1.2,0.5c0.4,0.2,0.8,0.3,1.2,0.5c1.5,0.6,2.9,1.3,4,2.1
		c0.5,0.4,1,0.9,1.3,1.4C161.7,99.7,161.9,99.9,162,100.1z M160.6,102.3c0,0-0.1-0.3-0.3-0.8c-0.2-0.5-0.6-1-1.4-1.5
		c-0.8-0.5-2-1-3.5-1.5c-0.4-0.1-0.8-0.2-1.2-0.4c-0.4-0.1-0.8-0.3-1.3-0.4c-1-0.3-1.9-0.8-2.8-1.4c-1.8-1.2-3.5-2.9-4.9-4.9
		c-1.4-2-2.5-4.4-3.2-7c-0.3-1.3-0.6-2.9,0-4.7c0.2-0.9,0.7-1.7,1.3-2.4c0.6-0.7,1.3-1.2,2-1.6c1.4-0.8,2.8-1.2,4.2-1.5
		c0.7-0.2,1.4-0.3,2.1-0.4c0.7-0.1,1.3-0.1,2-0.2c2.9-0.3,5.9,0.1,8.6,1.1c2.7,1,5.2,2.5,7.1,4.3c1,0.9,1.9,2,2.6,3.1
		c0.7,1.1,1.4,2.2,1.8,3.7c0.1,0.3,0.1,0.6,0.2,0.8c0.1,0.5,0.1,0.9,0.1,1.4c-0.1,0.8-0.3,1.5-0.5,2.1c-0.5,1.2-1.1,2.1-1.7,3
		c-1.2,1.7-2.5,3.1-3.6,4.3c-1.2,1.2-2.2,2.1-3.1,2.9c-0.9,0.8-1.6,1.4-2.1,1.8l-1.9,1.5L160.6,102.3z"/>
	<path class="st2" d="M162.7,98.8c0-0.2-0.1-0.4-0.1-0.5c-0.1-0.3-0.1-0.6-0.2-0.8c0-0.1,0-0.2-0.1-0.2c-0.6-2.4-1.8-4.6-3.7-6.4
		c-3.7-3.4-13.3-4-10-11.4c0.6-0.6,1.4-1.1,2.5-1.4c1.9-0.5,1.1-3.4-0.8-2.9c-1.4,0.4-2.6,1.1-3.6,2c-0.2,0.1-0.4,0.3-0.5,0.5
		c-2,2.2-2.8,5.3-1.2,8.4c1,2,2.7,3.1,4.7,4c4.2,2,8.1,3.1,9.6,7.3c0.1,0.3,0.2,0.6,0.3,0.9c0,0.1,0.1,0.2,0.1,0.3
		c0.1,0.5,0.2,1,0.2,1.5c0.2,1.9,3.2,1.9,3,0C162.8,99.7,162.7,99.2,162.7,98.8z"/>
</g>
</svg>
