<?xml version="1.0" encoding="utf-8"?>
<!-- Generator: Adobe Illustrator 19.1.0, SVG Export Plug-In . SVG Version: 6.00 Build 0)  -->
<svg version="1.1" id="Layer_1" xmlns="http://www.w3.org/2000/svg" xmlns:xlink="http://www.w3.org/1999/xlink" x="0px" y="0px"
	 viewBox="0 0 50 50" style="enable-background:new 0 0 50 50;" xml:space="preserve">
<style type="text/css">
	.st0{fill:#CCCCCC;}
</style>
<g>
	<path class="st0" d="M11.1,41.4c-0.7,0-1.3-0.2-1.7-0.7c-0.5-0.5-0.7-1.1-0.7-1.7V11c0-0.7,0.2-1.3,0.7-1.7
		c0.5-0.5,1.1-0.7,1.7-0.7H39c0.7,0,1.3,0.2,1.7,0.7c0.5,0.5,0.7,1.1,0.7,1.7v27.9c0,0.7-0.2,1.2-0.7,1.7s-1.1,0.7-1.7,0.7
		L11.1,41.4L11.1,41.4z M10.5,10.5c-0.2,0.2-0.2,0.4-0.2,0.6V39c0,0.2,0.1,0.4,0.2,0.6s0.4,0.2,0.6,0.2H39c0.2,0,0.4-0.1,0.6-0.2
		s0.2-0.4,0.2-0.6V11c0-0.2-0.1-0.4-0.2-0.6s-0.4-0.2-0.6-0.2H11.1C10.8,10.2,10.6,10.3,10.5,10.5z M12.7,11.9
		c-0.2,0-0.4,0.1-0.6,0.2s-0.2,0.4-0.2,0.6v19.7c0,0.2,0.1,0.4,0.2,0.6s0.4,0.2,0.6,0.2h24.6c0.2,0,0.4-0.1,0.6-0.2s0.2-0.4,0.2-0.6
		V12.7c0-0.2-0.1-0.4-0.2-0.6s-0.4-0.2-0.6-0.2H12.7z M31.1,31.6L21,20.7c-0.2-0.2-0.5-0.4-0.8-0.6C19.9,20,19.6,20,19.3,20
		c-0.3,0-0.6,0.1-0.9,0.2s-0.6,0.3-0.8,0.6l-4,4.5V13.5h23v18h-5.5V31.6z M18.8,21.8c0.1-0.1,0.1-0.1,0.2-0.2c0.1,0,0.2-0.1,0.3-0.1
		c0.1,0,0.2,0,0.3,0.1s0.2,0.1,0.2,0.2l9.1,9.7H13.5v-3.8L18.8,21.8z M28.6,23.1c-0.4-0.2-0.7-0.4-1-0.7s-0.5-0.6-0.7-1
		s-0.3-0.8-0.3-1.3c0-0.4,0.1-0.9,0.3-1.3c0.2-0.4,0.4-0.7,0.7-1c0.3-0.3,0.6-0.5,1-0.7s0.8-0.3,1.3-0.3s0.9,0.1,1.3,0.3
		c0.4,0.2,0.7,0.4,1,0.7c0.3,0.3,0.5,0.6,0.7,1s0.3,0.8,0.3,1.3s-0.1,0.9-0.3,1.3s-0.4,0.7-0.7,1s-0.6,0.5-1,0.7s-0.8,0.3-1.3,0.3
		C29.5,23.3,29,23.3,28.6,23.1z M28.8,18.9c-0.3,0.3-0.5,0.7-0.5,1.2s0.2,0.8,0.5,1.2s0.7,0.5,1.2,0.5s0.8-0.2,1.2-0.5
		s0.5-0.7,0.5-1.2c0-0.4-0.2-0.8-0.5-1.2c-0.3-0.3-0.7-0.5-1.2-0.5S29.1,18.6,28.8,18.9z"/>
</g>
</svg>
