<?xml version="1.0" encoding="utf-8"?>
<!-- Generator: Adobe Illustrator 19.1.0, SVG Export Plug-In . SVG Version: 6.00 Build 0)  -->
<svg version="1.1" id="Layer_1" xmlns="http://www.w3.org/2000/svg" xmlns:xlink="http://www.w3.org/1999/xlink" x="0px" y="0px"
	 viewBox="0 0 50 50" style="enable-background:new 0 0 50 50;" xml:space="preserve">
<style type="text/css">
	.st0{fill:#CCCCCC;}
</style>
<g>
	<path class="st0" d="M11.5,41.5c-0.7,0-1.3-0.2-1.8-0.7C9.3,40.2,9,39.7,9,39c0,0,0-0.2,0-0.5c0-0.3,0.1-0.7,0.2-1.3
		c0.1-0.5,0.3-1.1,0.6-1.7c0.3-0.6,0.7-1.3,1.2-2c0.3-0.4,0.6-0.8,1-1.1c0.3-0.4,0.7-0.7,1.1-1s0.8-0.6,1.3-0.9
		c0.5-0.3,0.9-0.5,1.4-0.7c0.6-0.3,1.3-0.5,1.9-0.7s1.4-0.4,2.2-0.5c0.8-0.1,1.5-0.2,2.4-0.3c0.8-0.1,1.7-0.1,2.6-0.1
		c0.9,0,1.7,0,2.6,0.1c0.8,0.1,1.6,0.2,2.4,0.3c0.8,0.1,1.5,0.3,2.2,0.5c0.7,0.2,1.3,0.4,1.9,0.7c0.5,0.2,1,0.5,1.4,0.7
		c0.5,0.3,0.9,0.6,1.3,0.9c0.4,0.3,0.8,0.6,1.1,1c0.3,0.4,0.7,0.7,1,1.1c0.5,0.7,0.9,1.3,1.2,2c0.3,0.6,0.5,1.2,0.6,1.7
		c0.1,0.5,0.2,0.9,0.2,1.3c0,0.3,0,0.5,0,0.5c0,0.7-0.2,1.3-0.7,1.8c-0.5,0.5-1.1,0.7-1.8,0.7H11.5z M20.8,30.1
		c-1.3,0.2-2.4,0.5-3.5,0.9c-1,0.4-2,0.9-2.8,1.4c-0.8,0.6-1.5,1.2-2.1,2c-0.4,0.6-0.8,1.1-1,1.7c-0.2,0.5-0.4,1-0.5,1.5
		c-0.1,0.4-0.2,0.8-0.2,1s0,0.4,0,0.4c0,0.2,0.1,0.4,0.2,0.6c0.2,0.2,0.4,0.2,0.6,0.2h26.8c0.2,0,0.4-0.1,0.6-0.2
		c0.2-0.2,0.2-0.4,0.2-0.6c0,0,0-0.1,0-0.4s-0.1-0.6-0.2-1c-0.1-0.4-0.3-0.9-0.5-1.5c-0.2-0.5-0.6-1.1-1-1.7c-0.6-0.8-1.3-1.4-2.1-2
		c-0.8-0.6-1.8-1.1-2.8-1.4s-2.2-0.7-3.5-0.9c-1.3-0.2-2.6-0.3-4.1-0.3C23.5,29.8,22.1,29.9,20.8,30.1z M21.3,25.7
		c-1.1-0.5-2.1-1.1-2.9-2s-1.5-1.8-2-2.9c-0.5-1.1-0.7-2.3-0.7-3.6c0-1.3,0.2-2.5,0.7-3.6c0.5-1.1,1.1-2.1,2-2.9
		c0.8-0.8,1.8-1.5,2.9-2C22.5,8.3,23.6,8,24.9,8c1.3,0,2.5,0.2,3.6,0.7c1.1,0.5,2.1,1.1,2.9,2c0.8,0.8,1.5,1.8,2,2.9
		c0.5,1.1,0.7,2.3,0.7,3.6c0,1.3-0.2,2.5-0.7,3.6s-1.1,2.1-2,2.9s-1.8,1.5-2.9,2c-1.1,0.5-2.3,0.7-3.6,0.7
		C23.6,26.4,22.5,26.2,21.3,25.7z M22,10.3c-0.9,0.4-1.7,0.9-2.4,1.6c-0.7,0.7-1.2,1.5-1.6,2.4c-0.4,0.9-0.6,1.9-0.6,2.9
		c0,1,0.2,2,0.6,2.9c0.4,0.9,0.9,1.7,1.6,2.4c0.7,0.7,1.5,1.2,2.4,1.6c0.9,0.4,1.9,0.6,2.9,0.6c1,0,2-0.2,2.9-0.6
		c0.9-0.4,1.7-0.9,2.4-1.6c0.7-0.7,1.2-1.5,1.6-2.4c0.4-0.9,0.6-1.9,0.6-2.9c0-1-0.2-2-0.6-2.9c-0.4-0.9-0.9-1.7-1.6-2.4
		c-0.7-0.7-1.5-1.2-2.4-1.6c-0.9-0.4-1.9-0.6-2.9-0.6C23.9,9.7,22.9,9.9,22,10.3z"/>
</g>
</svg>
